<?xml version="1.0" encoding="UTF-8"?>
<svg xmlns="http://www.w3.org/2000/svg" version="1.1" viewBox="0 0 512 512">
  <defs>
    <style>
      .cls-1 {
        fill: #ffcf40;
      }

      .cls-2 {
        fill: violet;
      }
    </style>
  </defs>
  <!-- Generator: Adobe Illustrator 28.6.0, SVG Export Plug-In . SVG Version: 1.2.0 Build 709)  -->
  <g>
    <g id="Layer_1">
      <path class="cls-1" d="M0,0h512v512H0V0Z"/>
      <path class="cls-2" d="M505.7,206.2h0l-23.9-118.7h0c0-1-.5-2-1-2.5q0-.5-.5-.5c-.5-.5-1-1-1-2l-.5-.5h0c-.5-.5-1.5-1-2-1.5h-.5c-.5-.5-1.5-1-2.5-1h-.5l-118.7-35.4h-6.5c-.5,0-1,0-1,.5q-.5,0-1,.5h-.5l-89.8,44.9-89.8-44.9h-.5q-.5,0-1-.5c-.5,0-1-.5-1-.5h-6.5l-117.2,34.4h-.5c-.5,0-1.5.5-2,1l-.5.5c-1,.5-1.5,1-2,2h0c-.5.5-1,1.5-1.5,2,0,0,0,.5-.5.5-.5.5-.5,1.5-1,2v.5l-23.9,118.7v4c0,1,.5,2,.5,2.5v.5l47.4,118.7h0c.5,1,1,1.5,1.5,2.5h0l.5.5c.5.5,1,1,1.5,1.5h0l190,154.1h.5c.5.5,1,.5,1.5,1,0,0,.5,0,.5.5.5,0,.5.5,1,.5s.5,0,1,.5h5.5c.5,0,1,0,1.5-.5,0,0,.5,0,.5-.5.5,0,1-.5,1-.5,0,0,.5,0,.5-.5.5,0,.5-.5,1-.5h.5l190-154.1h0c.5-.5,1-1,1.5-2l.5-.5c.5-.5.5-1,1-1.5v-.5l47.4-118.7v-.5c.5-1,.5-1.5.5-2.5v-1.5c1-.5,1-1,.5-2h0ZM363.6,70.5l84.3,25.4-84.3,84.3v-109.7ZM340.1,73.5v103.7l-64.3-71.8,64.3-31.9ZM260.3,123.4l68.3,76.8-111.2,17,42.9-93.7ZM241.4,107.4l-39.4,86.8-23.4-118.2,62.8,31.4ZM152.6,69.5l25.9,129.2-112.2-103.2,86.3-25.9ZM50.9,112.9l111.2,102.7-128.2-17,17-85.8ZM37.9,223.1l128.7,17-94.2,68.8-34.4-85.8ZM86.3,327.8l103.7-75.3,46.9,198-150.6-122.7ZM258.8,439.5l-46.9-197.5,122.2-18.9-75.3,216.4ZM281.8,446l74.3-213.4,74.3,92.8-148.6,120.7ZM443.3,303.9l-66.8-83.3h100.2l-33.4,83.3ZM380.5,196.7l82.8-82.8,16.5,82.8h-99.2Z"/>
    </g>
  </g>
</svg>